# xmcd
#
# Track frame offsets: 
#        150
#        10855
#        20792
#        31610
#        48517
#        64430
#        81300
#        93577
#        106812
#        117127
#        130825
#        145910
#        156145
#        171647
#        184877
#        201690
#        217727
#        232062
#        249312
#        263772
#
# Disc length: 3761 seconds
#
# Revision: 0
# Processed by: cddbd v1.5.2PL0 Copyright (c) Steve Scherf et al.
# Submitted via: ExactAudioCopyFreeDBPlugin 1.0
#
DISCID=210eaf14
DTITLE=キング男声合唱団他 - 軍歌メモリアル
DYEAR=1900
DGENRE=Country
TTITLE0=戦陣訓の歌
TTITLE1=進め一億火の玉だ
TTITLE2=大東亜決戦の歌
TTITLE3=大東亜戦争海軍の歌
TTITLE4=戦友の遺骨を抱いて
TTITLE5=空の神兵
TTITLE6=アッツ島血戦勇士顕彰国民歌
TTITLE7=月月火水木金金
TTITLE8=轟沈
TTITLE9=索敵行
TTITLE10=明日はおたちか
TTITLE11=若鷲の歌
TTITLE12=大航空の歌
TTITLE13=ラバウル海軍航空隊
TTITLE14=征くぞ空の決戦場
TTITLE15=あゝ紅の血は燃ゆる
TTITLE16=父母のこえ
TTITLE17=特幹の歌
TTITLE18=必勝歌
TTITLE19=嗚呼神風特別攻撃隊
EXTD=
EXTT0=
EXTT1=
EXTT2=
EXTT3=
EXTT4=
EXTT5=
EXTT6=
EXTT7=
EXTT8=
EXTT9=
EXTT10=
EXTT11=
EXTT12=
EXTT13=
EXTT14=
EXTT15=
EXTT16=
EXTT17=
EXTT18=
EXTT19=
PLAYORDER=
